<svg xmlns="http://www.w3.org/2000/svg" viewBox="0 0 700 700">
	<path d="M327.8.4c-.1.2-3.9.6-8.3 1-48.9 3.8-100.4 20.1-145 45.9-10.2 5.9-28.8 18-30.5 19.7-.3.3-4.3 3.4-9 7-9 6.9-11.1 8.6-19.8 16.5-28.3 25.7-53 56.8-71.4 90C39 189.1 29 209.4 29 210.6c0 .2-1.1 2.7-2.4 5.6-5.2 11.6-14.2 38.9-16.2 49.1-.2 1-.6 2.7-.9 3.7s-.8 2.9-1 4.2c-.3 1.3-1.1 5.7-2 9.8-2.2 11.5-3 16-4.1 25.5-2.6 23-2.6 66.7.1 82.6.2 1.3.6 4.6.9 7.4.9 7.8 2.2 15.2 5.1 28.5 2.1 9.6 9.1 33.9 11.4 39.5.5 1.1 2.5 6.5 4.6 12 6.3 16.6 24.9 53.1 31.2 61 .4.6 3.4 4.9 6.5 9.5 26.1 39 67.3 77.2 111.3 103.2 37 22 84.7 38.5 127.4 44.4 2.5.3 5.7.8 7.1 1 16.3 2.5 68.2 2.5 84.2-.1 1.3-.2 4.6-.7 7.3-1 7.2-1 8.6-1.2 12-1.9 1.7-.3 4.4-.8 6-1.1 19.3-3.7 40.9-10.1 62.7-18.6 12.6-5 41.3-19 46.8-22.9 1.5-1.1 3.3-2 3.9-2s1.1-.5 1.1-1c0-.6.5-1 1-1 1.5 0 22-14.1 33-22.7 15.1-11.7 32.4-28.1 45-42.2 3.6-4.1 7-7.9 7.6-8.5s4.8-6.1 9.4-12.1c15-19.7 27.7-40.5 38.3-62.8 2.6-5.3 4.7-9.9 4.7-10.2 0-.2 1.1-2.8 2.4-5.7 5.7-12.7 15.1-42.1 18.2-57.3 1.7-8.1 5.4-30.1 5.9-35 .4-3.3.9-7.1 1.1-8.5.9-4.6 1.1-52.4.4-60.5-1.5-15.3-2.1-21-2.5-22.5-.2-.8-.7-3.5-1-6-1.5-11.7-7.8-37.5-12.5-52-10.3-31.2-23.4-58.1-41.6-85.5C598.3 91.5 534.6 42.6 461 18.1c-17.4-5.8-41.5-11.8-55-13.6-1.9-.3-4.6-.7-6-1-1.3-.2-5.2-.7-8.6-1.1-3.3-.3-7.4-.8-9-1-3.2-.5-54-1.4-54.6-1zm49.7 88c3.3.4 8.3 1.1 11 1.6 2.8.5 6.8 1.2 9 1.5s4.7.7 5.5 1c.8.2 2.6.6 4 .9 1.4.2 4.5.9 7 1.6s5.2 1.3 6 1.5c4.9 1 23.1 7.4 32.8 11.6 48.9 21 89.8 55.5 118.6 100.2 14.5 22.4 28.3 54.3 33.6 77.7.5 1.9 1.1 4.6 1.4 6 1.6 6.4 4.6 25.3 5.3 32.5.9 10.5 1 39.9 0 50-.6 6.6-3.2 24.2-4.1 28-.1.5-.8 3.7-1.5 7s-1.6 7.1-2.1 8.5-1.8 5.9-3 10c-11.2 38-34 75.9-64 106.1-16.8 16.9-22.1 21.4-42.7 35.6-10.8 7.6-36.4 20.7-48.8 25.2-3.3 1.2-6.9 2.6-8 3.1-5.8 2.8-34.3 9.9-45.5 11.5-2.5.3-5.2.8-6 1-9.4 2.6-55.9 2.6-71 0-1.4-.2-4.3-.7-6.5-1-4.2-.5-7.1-1.1-11.5-2-1.4-.3-3.4-.7-4.5-1-34.1-7.1-70.6-24.1-101-46.9-14.6-11-39-35.1-49.8-49.3-22.1-29-37.2-60.2-46.1-94.7-3.4-12.9-3.8-15-5-23.1-.4-2.2-.8-5.4-1.1-7-2-13.3-2.7-48.8-1.1-62.5 5.3-46.7 21.7-89.5 48.6-127 9.4-13 12.5-16.5 27.5-31.6 26.3-26.3 55.2-45.5 88.5-58.7 16.1-6.3 37.5-12.5 49.5-14.2 2.2-.3 6.2-1 8.8-1.5 2.7-.6 8.8-1.3 13.5-1.6 4.8-.3 8.9-.7 9-.9.6-.6 37.4.2 43.7.9z"/>
	<path d="M165.9 206.7v16.6l.1 6.3 15.7 6.4 15.7 6.5 6.2 13c7.1 15.1 11.1 23.4 20.4 43.5 3.7 8 8.6 18.3 10.8 23 5 10.6 18.2 38.8 23.2 49.5 8.9 19.1 18.2 38.8 23.4 49.8 3.1 6.5 5.6 12 5.6 12.2s3 6.6 6.6 14.2c3.7 7.6 9.2 19.4 12.4 26.3s8.1 17.4 11 23.5c2.9 6 6.6 13.9 8.2 17.5 3.4 7.4 7.2 15.5 15.1 32.1 3 6.4 5.8 12.6 6.2 13.8.8 2.6 2.1 2.7 2.8.3.3-.9 6.5-14.3 13.7-29.7 7.3-15.4 14.7-31.2 16.5-35 1.8-3.9 7.2-15.3 12-25.5 8.9-18.9 9.9-20.9 20.3-43.5 3.3-7.2 8-17.3 10.5-22.5 9.1-19.3 16.8-35.7 23.7-50.5 1.5-3.3 4.8-10.3 7.3-15.5 2.4-5.2 5.6-12 7-15s4.8-10.5 7.7-16.5c2.9-6.1 6.5-13.7 8-17s4.3-9.4 6.3-13.5c1.9-4.1 5.8-12.5 8.6-18.5 2.8-6.1 5.7-12.1 6.5-13.4 1-1.9 5.4-4.1 18-9l16.7-6.6-.3-12-.3-12-60-.1c-33 0-60.5.1-61.1.3s-1 4.6-1 12.1l.1 11.7 12.6 5.4 12.7 5.4-1.5 3.6c-.8 2-3.2 7.3-5.4 11.8-2.1 4.6-3.9 8.5-3.9 8.7s-2 4.7-4.5 10-4.5 9.9-4.5 10.1-1.5 3.7-3.4 7.7S403 311 396.7 325s-15.9 35.2-21.2 47-13.5 30-18.3 40.5c-4.7 10.4-8.7 19.2-8.8 19.4-.4.4-11.4-22.3-11.4-23.3 0-.3-1.7-4.2-3.9-8.8-5.8-12.6-8.7-18.9-15.8-34.8-3.6-8-7.8-17.2-9.3-20.5s-11.3-24.9-21.8-48-20.4-45-22.1-48.7c-1.7-3.6-3.1-6.8-3.1-7.1s5.6-2.9 12.5-5.7c8.4-3.6 12.5-5.8 12.6-6.9.3-6.9 0-21.4-.6-21.9-.4-.4-27.4-.7-60.1-.7-46.9 0-59.4.3-59.5 1.2z"/>
</svg>
