<svg xmlns="http://www.w3.org/2000/svg" fill="none" viewBox="0 0 24 24" stroke-width="1.5" stroke="#424242">
	<path stroke-linecap="round" stroke-linejoin="round" d="M9.75 3.104v5.714c0 .295-.137.409-.25.682m.25-6.396c-.251.023-.501.05-.75.082m.75-.082a24.16 24.16 0 0 1 4.5 0M5 14.5l.77-.193A9.065 9.065 0 0 1 12 15m-7-.5-2.202 2.203c-1.233 1.231-.651 3.317 1.067 3.61A48.25 48.25 0 0 0 12 21c1.422 0 2.842-.062 4.257-.186M5 14.5l2.881-2.882m6.369-8.514v5.714c0 .597.237 1.17.659 1.591L19.8 15.3M14.25 3.104c.251.023.501.05.75.082M19.8 15.3l-1.57.393a9.065 9.065 0 0 1-2.055.264M19.8 15.3l1.402 1.402c1.14 1.14.727 3.012-.702 3.517M21 21l-4.225-4.225L6.53 6.53 3 3"/>
</svg>
