<svg xmlns="http://www.w3.org/2000/svg" fill="none" viewBox="0 0 24 24">
	<path fill="#424242" d="M7.816 22.84a.75.75 0 0 0 1.5 0h-1.5Zm1.5-2.514a.75.75 0 0 0-1.5 0h1.5Zm-6.637-.225a.75.75 0 1 0 1.06 1.06l-1.06-1.06Zm2.838-.718a.75.75 0 1 0-1.06-1.06l1.06 1.06ZM1 14.572a.75.75 0 0 0 0 1.5v-1.5Zm2.514 1.5a.75.75 0 0 0 0-1.5v1.5ZM5.797 7.44l-.534-.526-.523.53.527.526.53-.53Zm4.116-4.18.534.526h.002l-.536-.526ZM3.985 9.186l-.53-.53.53.53Zm-.49 1.185h.75-.75Zm.49 1.185-.53.53v.001l.53-.531Zm1.188 1.185.53-.53v-.001l-.53.531Zm2.37 0 .53.53-.53-.53Zm5.925-5.925-.523-.538-.007.008.53.53Zm3.555 3.555.53.53.008-.007-.538-.523Zm-5.925 5.927.53.53-.53-.53Zm0 2.37.53-.53-.53.53Zm1.185 1.186-.53.53.53-.53Zm2.37 0 .53.53-.53-.53Zm5.926-5.928-.525-.535-.003.002.528.533Zm-4.149 4.113-.528.533.528.523.528-.523-.528-.533ZM9.316 22.84v-2.514h-1.5v2.514h1.5Zm-5.577-1.679 1.778-1.778-1.06-1.06L2.679 20.1l1.06 1.06ZM1 16.072h2.514v-1.5H1v1.5Zm8.883-5.605L6.327 6.91l-1.06 1.06 3.556 3.557 1.06-1.06Zm-3.552-2.5 4.116-4.18L9.38 2.733l-4.116 4.18L6.33 7.966ZM9.383 2.73 3.455 8.656l1.06 1.06 5.928-5.926-1.06-1.06ZM3.455 8.656a2.426 2.426 0 0 0-.71 1.715h1.5c0-.246.097-.481.27-.655l-1.06-1.06Zm-.71 1.715c0 .643.255 1.26.71 1.715l1.06-1.06a.926.926 0 0 1-.27-.655h-1.5Zm.71 1.716 1.188 1.185 1.06-1.062-1.188-1.185-1.06 1.062Zm1.188 1.184c.455.455 1.072.71 1.715.71v-1.5a.926.926 0 0 1-.655-.27l-1.06 1.06Zm1.715.71c.643 0 1.26-.255 1.715-.71l-1.06-1.06a.926.926 0 0 1-.655.27v1.5Zm1.715-.71 5.925-5.925-1.06-1.06-5.925 5.925 1.06 1.06Zm5.918-5.917a1.764 1.764 0 0 1 1.242-.5l.01-1.5a3.264 3.264 0 0 0-2.298.924l1.046 1.076Zm1.242-.5c.464.003.908.189 1.235.516l1.061-1.06a3.264 3.264 0 0 0-2.286-.956l-.01 1.5Zm1.235.516c.328.328.514.772.517 1.236l1.5-.01a3.264 3.264 0 0 0-.956-2.286l-1.06 1.06Zm.517 1.236c.003.463-.176.91-.5 1.242l1.076 1.046c.598-.615.93-1.44.924-2.299l-1.5.01Zm-.492 1.235-5.925 5.927 1.06 1.06 5.925-5.927-1.06-1.06Zm-5.925 5.927a2.426 2.426 0 0 0-.71 1.715h1.5c0-.246.097-.481.27-.655l-1.06-1.06Zm-.71 1.715c0 .643.255 1.26.71 1.715l1.06-1.06a.926.926 0 0 1-.27-.655h-1.5Zm.71 1.715 1.184 1.186 1.062-1.06-1.185-1.186-1.062 1.06Zm1.185 1.186c.455.455 1.072.71 1.715.71v-1.5a.926.926 0 0 1-.655-.27l-1.06 1.06Zm1.715.71c.643 0 1.26-.255 1.715-.71l-1.06-1.06a.926.926 0 0 1-.655.27v1.5Zm1.715-.71 5.926-5.928-1.06-1.06-5.926 5.928 1.06 1.06Zm4.868-6.99-4.149 4.112 1.056 1.066 4.149-4.113-1.056-1.066Zm-3.093 4.112-3.522-3.488-1.056 1.066 3.522 3.488 1.056-1.066Zm4.146-3.045a8.292 8.292 0 0 0 1.831-2.69l-1.381-.585a6.792 6.792 0 0 1-1.5 2.205l1.05 1.07Zm1.831-2.69a8.293 8.293 0 0 0 .655-3.19l-1.5-.007a6.793 6.793 0 0 1-.536 2.612l1.381.584Zm.655-3.19a8.293 8.293 0 0 0-.624-3.194l-1.387.57c.341.83.515 1.72.51 2.617l1.5.008Zm-.624-3.194a8.292 8.292 0 0 0-1.805-2.709L20.1 3.74a6.793 6.793 0 0 1 1.479 2.219l1.387-.571ZM21.16 2.678A8.292 8.292 0 0 0 18.45.873l-.57 1.388c.83.34 1.584.843 2.219 1.478l1.06-1.06ZM18.45.873A8.292 8.292 0 0 0 15.258.25l.007 1.5a6.792 6.792 0 0 1 2.617.51l.57-1.387ZM15.258.25a8.292 8.292 0 0 0-3.188.654l.584 1.382a6.793 6.793 0 0 1 2.611-.536l-.007-1.5ZM12.07.904a8.289 8.289 0 0 0-2.691 1.83l1.07 1.051a6.789 6.789 0 0 1 2.205-1.499L12.068.904Z"/>
</svg>
